<?xml version="1.0" encoding="UTF-8"?><svg xmlns="http://www.w3.org/2000/svg" xmlns:xlink="http://www.w3.org/1999/xlink" height="413.1" preserveAspectRatio="xMidYMid meet" version="1.0" viewBox="0.0 0.0 382.0 413.1" width="382.0" zoomAndPan="magnify"><g id="change1_1"><path d="M227.867,36.196c0,19.99-16.205,36.196-36.196,36.196s-36.196-16.205-36.196-36.196S171.681,0,191.671,0 S227.867,16.205,227.867,36.196z M81.698,41.641c-19.99,0-36.196,16.205-36.196,36.196s16.205,36.196,36.196,36.196 s36.196-16.205,36.196-36.196S101.689,41.641,81.698,41.641z M300.577,41.641c-19.99,0-36.196,16.205-36.196,36.196 s16.205,36.196,36.196,36.196c19.99,0,36.196-16.205,36.196-36.196S320.567,41.641,300.577,41.641z M345.769,147.258 c-19.99,0-36.196,16.205-36.196,36.196s16.205,36.196,36.196,36.196c19.99,0,36.196-16.205,36.196-36.196 S365.759,147.258,345.769,147.258z M36.196,145.624C16.205,145.624,0,161.829,0,181.819s16.205,36.196,36.196,36.196 s36.196-16.205,36.196-36.196S56.186,145.624,36.196,145.624z" fill="#F5F6F7"/></g><g id="change2_1"><path d="M299.919,188.32c0,40.31-21.901,75.497-54.446,94.336c0.86,7.368,1.108,13.635,0.541,16.712 c-1.849,10.036-16.071,20.297-16.676,20.729c-0.105,0.075-0.228,0.111-0.348,0.111c-0.188,0-0.372-0.087-0.489-0.251 c-0.192-0.27-0.13-0.645,0.14-0.837c0.144-0.103,14.433-10.41,16.193-19.969c1.86-10.102-4.731-49.05-11.866-57.415 c-7.392-8.665-24.403-16.461-24.574-16.539c-0.302-0.137-5.693-3.481-5.693-3.481l-3.391-3.391c0,0-0.848-3.652-0.652-6.978 c0.686-0.312,1.245-0.568,1.71-0.783h0.676c8.609,3.913,6.489-2.902,14.315-3.163c7.826-0.261,5.576-6.065,9.489-7.63 c3.913-1.565,8.935-3.783,5.283-10.565c-3.652-6.783,0.293-8.022,0.13-12.815c-0.24-7.059-8.087-6.783-7.826-10.956 c0.261-4.174,0.058-10.853-7.826-11.217c-7.049-0.326-6.005-4.492-10.864-5.707c-6.261-1.565-9.913,3.62-9.913,3.62 s-3.13-6.261-11.739-3.913s-5.897,5.831-14.087,6c-7.891,0.163-8.087,7.043-7.826,11.217c0.261,4.174-7.586,3.898-7.826,10.956 c-0.163,4.794,3.783,6.033,0.13,12.815s1.37,9,5.283,10.565c3.913,1.565,1.663,7.37,9.489,7.63c7.823,0.261,5.709,7.07,14.305,3.167 l1.836,0.811c0,0,0.978,6.098-1.174,7.565c-0.994,0.678-8.45,6.116-8.751,6.252c-0.171,0.078-17.184,7.874-24.575,16.539 c-7.135,8.366-13.727,47.314-11.867,57.415c1.761,9.559,16.05,19.866,16.194,19.969c0.27,0.192,0.332,0.567,0.14,0.837 c-0.117,0.164-0.302,0.251-0.489,0.251c-0.121,0-0.243-0.036-0.348-0.111c-0.604-0.432-14.828-10.692-16.676-20.729 c-0.568-3.084-0.318-9.372,0.547-16.763c-32.494-18.853-54.352-54.014-54.352-94.286c0-60.164,48.773-108.937,108.937-108.937 C251.146,79.383,299.919,128.156,299.919,188.32z M314.587,84.015c-1.304-9.492-10.554-11.571-14.012-11.571 c-3.454,0-12.704,2.079-14.008,11.571c-1.033,7.534,6.717,10.829,8.653,11.529v5.759h1.359v2.515h0.835 c0.052,0.429,0.205,0.988,0.628,1.471c0.559,0.639,1.411,0.963,2.532,0.963s1.973-0.324,2.531-0.963 c0.422-0.483,0.573-1.042,0.625-1.471h0.843v-2.515h1.359v-5.759C307.87,94.843,315.62,91.549,314.587,84.015z M302.202,104.5 c-0.32,0.366-0.867,0.552-1.627,0.552c-0.755,0-1.301-0.184-1.623-0.546c-0.19-0.214-0.28-0.467-0.324-0.688h3.891 C302.476,104.035,302.389,104.285,302.202,104.5z M303.375,102.617h-5.596v-1.315h5.596V102.617z M305.164,94.538l-0.43,0.127v5.437 h-8.314v-5.437l-0.43-0.127c-0.379-0.112-9.267-2.831-8.233-10.36c1.187-8.642,9.655-10.534,12.822-10.534 c3.163,0,11.632,1.893,12.818,10.534C314.431,91.708,305.543,94.426,305.164,94.538z M93.607,60.111H69.789v14.106l11.909,8.528 l11.909-8.528V60.111z M92.407,73.601L81.698,81.27L70.99,73.601v-12.29h21.417V73.601z M157.132,287.374 c0.479-17.61-5.094-41.359-6.907-43.777c-0.199-0.265-0.576-0.318-0.84-0.119c-0.265,0.198-0.319,0.574-0.12,0.84 c1.45,1.933,7.186,25.407,6.663,43.188c-0.003,0.108,0.023,0.216,0.076,0.311c4.917,8.797,21.522,31.912,21.689,32.145 c0.117,0.163,0.301,0.249,0.488,0.249c0.121,0,0.244-0.036,0.35-0.112c0.269-0.193,0.331-0.568,0.137-0.838 C178.501,319.028,162.114,296.217,157.132,287.374z M232.6,244.317c0.199-0.266,0.146-0.642-0.119-0.84 c-0.266-0.198-0.642-0.147-0.84,0.119c-1.814,2.418-7.386,26.167-6.908,43.777c-4.981,8.844-21.369,31.654-21.535,31.885 c-0.193,0.27-0.132,0.645,0.137,0.838c0.106,0.076,0.229,0.112,0.35,0.112c0.187,0,0.371-0.086,0.488-0.249 c0.167-0.232,16.772-23.348,21.688-32.145c0.054-0.095,0.079-0.202,0.076-0.311C225.415,269.724,231.151,246.25,232.6,244.317z M190.903,231.879c-0.332,0-0.6,0.269-0.6,0.6v87.326c0,0.331,0.269,0.6,0.6,0.6s0.6-0.269,0.6-0.6v-87.326 C191.503,232.147,191.235,231.879,190.903,231.879z" fill="#F4AD31"/></g><g id="change3_1"><path d="M173.431,47.993h4.876c3.591,0,6.641-3.354,7.742-7.998h11.24c1.123,4.798,4.198,7.998,7.748,7.998h4.876 c4.514,0,8.185-5.292,8.185-11.797s-3.671-11.797-8.185-11.797h-4.876c-3.547,0-6.626,3.202-7.747,7.998h-11.24 c-1.101-4.644-4.151-7.998-7.742-7.998h-4.876c-4.514,0-8.186,5.292-8.186,11.797S168.917,47.993,173.431,47.993z M209.912,25.598 c3.852,0,6.985,4.754,6.985,10.597s-3.134,10.597-6.985,10.597h-1.302c2.725-1.917,4.611-5.94,4.611-10.597 s-1.886-8.68-4.611-10.597H209.912z M205.036,25.598c3.852,0,6.985,4.754,6.985,10.597s-3.134,10.597-6.985,10.597 c-2.865,0-5.482-2.766-6.516-6.798h6.516c1.552,0,2.767-1.669,2.767-3.799s-1.215-3.799-2.767-3.799h-6.514 C199.554,28.366,202.172,25.598,205.036,25.598z M205.036,33.596c0.85,0,1.567,1.19,1.567,2.599s-0.718,2.599-1.567,2.599h-18.751 c0.131-0.838,0.207-1.705,0.207-2.599s-0.075-1.762-0.207-2.599H205.036z M178.307,25.598c3.852,0,6.985,4.754,6.985,10.597 s-3.134,10.597-6.985,10.597h-1.302c2.725-1.917,4.612-5.94,4.612-10.597s-1.887-8.68-4.612-10.597H178.307z M173.431,25.598 c3.852,0,6.985,4.754,6.985,10.597s-3.133,10.597-6.985,10.597s-6.985-4.754-6.985-10.597S169.579,25.598,173.431,25.598z M252.564,300.337c-0.474-0.675-1.249-1.076-2.073-1.076h-119.71c-0.824,0-1.599,0.401-2.073,1.076 c-0.474,0.673-0.59,1.537-0.312,2.313v-0.001l18.773,52.455c0.359,1.004,1.318,1.679,2.385,1.679h82.165 c1.067,0,2.026-0.675,2.385-1.679l18.773-52.454C253.154,301.874,253.038,301.01,252.564,300.337z" fill="#758AEF"/></g><g id="change4_1"><path d="M361.608,176.658h-17.247l-2.249-4.047c-0.222-0.4-0.644-0.648-1.102-0.648h-16.168 c-0.695,0-1.26,0.565-1.26,1.26v25.549c0,0.695,0.564,1.26,1.26,1.26h36.766c0.695,0,1.261-0.565,1.261-1.26v-20.853 C362.869,177.223,362.304,176.658,361.608,176.658z M361.67,198.772c0,0.033-0.027,0.06-0.062,0.06l-36.826-0.06l0.061-25.609 l16.221,0.031l2.591,4.665l18.016,0.061V198.772z M313.721,56.062c-0.287-0.166-0.654-0.068-0.82,0.22l-5.491,9.5 c-0.142,0.245-0.091,0.549,0.106,0.736c0.033,0.032,0.071,0.06,0.113,0.084c0.287,0.166,0.654,0.068,0.82-0.22l5.49-9.5 C314.106,56.596,314.007,56.232,313.721,56.062z M300.574,49.749c-0.332,0.001-0.599,0.269-0.598,0.601l0.042,15.137 c0,0.171,0.072,0.326,0.188,0.435c0.108,0.102,0.254,0.165,0.414,0.164c0.331-0.001,0.599-0.269,0.598-0.601l-0.042-15.137 C301.175,50.016,300.906,49.748,300.574,49.749z M288.255,56.14c-0.165-0.288-0.532-0.387-0.818-0.223 c-0.288,0.164-0.388,0.531-0.223,0.819l5.512,9.643c0.03,0.052,0.066,0.099,0.108,0.138c0.187,0.177,0.476,0.219,0.71,0.085 c0.288-0.164,0.388-0.531,0.223-0.819L288.255,56.14z M34.215,161.211c0.137-0.776,0.58-1.477,1.216-1.922l-0.688-0.983 c-0.895,0.627-1.518,1.61-1.709,2.697c-0.153,0.87-0.1,2.244,1.024,3.846c2.173,3.096-0.047,5.55-0.141,5.651l0.873,0.823 c0.03-0.032,2.994-3.255,0.25-7.164C34.337,163.158,34.052,162.138,34.215,161.211z M42.172,161.211 c0.137-0.776,0.58-1.477,1.216-1.922l-0.688-0.983c-0.895,0.627-1.518,1.61-1.709,2.697c-0.153,0.87-0.1,2.244,1.024,3.846 c2.173,3.096-0.047,5.55-0.141,5.651l0.873,0.823c0.03-0.032,2.994-3.255,0.25-7.164C42.294,163.158,42.009,162.138,42.172,161.211z M196.031,370.136c-0.082,0.155-0.164,0.308-0.245,0.462c-1.507,2.609-3.418,6.068-5.311,9.326 c-0.528,0.871-0.846,1.378-0.846,1.378c0.01,0.004,0.02,0.01,0.03,0.014c-0.895,1.513-1.772,2.948-2.585,4.185 c-2.744-0.547-5.401-1.107-7.972-1.678c-2.582,10.708-5.279,23.286-4.426,23.574c1.154,0.389,11.293-14.656,19.892-21.525 c6.313,8.947,11.643,27.2,12.89,27.178c1.563-0.028,4.144-38.656,3.58-39.29C210.474,373.125,196.031,370.136,196.031,370.136z" fill="#E7514C"/></g><g id="change5_1"><path d="M66.225,95.637h30.947c0.753,0,1.366-0.613,1.366-1.366V72.64c0-0.067-0.01-0.131-0.02-0.195 c0.032-0.181-0.009-0.372-0.144-0.515l-0.203-0.215c-0.018-0.02-0.036-0.039-0.055-0.058l-4.574-4.84 c-0.229-0.242-0.608-0.251-0.848-0.024c-0.241,0.228-0.251,0.607-0.024,0.848l3.433,3.633h-2.518v1.2h2.479L81.794,82.65 c-0.058,0.041-0.134,0.041-0.192,0L67.334,72.474h2.446v-1.2h-2.486l3.449-3.65c0.228-0.241,0.217-0.621-0.024-0.848 c-0.24-0.228-0.62-0.217-0.848,0.024l-4.59,4.857c-0.019,0.018-0.037,0.038-0.055,0.058l-0.203,0.215 c-0.136,0.143-0.176,0.335-0.144,0.515c-0.009,0.064-0.02,0.128-0.02,0.195v21.631C64.859,95.024,65.472,95.637,66.225,95.637z M81.699,83.881c0.278,0,0.556-0.084,0.792-0.254l14.846-10.588v21.232c0,0.091-0.074,0.166-0.166,0.166H66.225 c-0.091,0-0.166-0.074-0.166-0.166V73.039l14.846,10.588C81.142,83.796,81.42,83.881,81.699,83.881z M77.033,60.969l4.546-4.81 c0.081-0.085,0.16-0.084,0.24,0l4.593,4.86c0.118,0.125,0.277,0.188,0.436,0.188c0.148,0,0.296-0.055,0.412-0.164 c0.241-0.228,0.251-0.607,0.024-0.848l-4.593-4.86c-0.257-0.272-0.619-0.428-0.993-0.428h0c-0.374,0-0.735,0.156-0.992,0.428 l-4.545,4.81c-0.228,0.241-0.217,0.621,0.024,0.848C76.425,61.222,76.806,61.211,77.033,60.969z M51.13,174.828H25.304 c-0.17,0-0.333,0.073-0.447,0.199c-0.114,0.127-0.168,0.296-0.15,0.465l0.687,6.332c-0.546,0.011-1.356,0.029-2.126,0.048 c-4.314,0.105-7.694,3.492-7.694,7.708c0,4.25,3.458,7.708,7.709,7.708c1.429,0,3.023-0.035,3.841-0.055l0.584,5.132 c0.035,0.303,0.291,0.532,0.596,0.532H49.13c0.314,0,0.575-0.242,0.598-0.556l2-26.87c0.013-0.167-0.045-0.331-0.158-0.453 C51.456,174.898,51.297,174.828,51.13,174.828z M48.573,201.697H28.84l-0.585-5.146c-0.035-0.31-0.306-0.548-0.614-0.532 c0,0-2.345,0.069-4.358,0.069c-3.589,0-6.509-2.919-6.509-6.508c0-3.56,2.865-6.419,6.523-6.509c1.327-0.032,2.775-0.06,2.775-0.06 c0.168-0.003,0.327-0.077,0.438-0.204s0.165-0.294,0.146-0.461l-0.685-6.318h24.511L48.573,201.697z M23.59,185.303 c-2.358,0-4.277,1.919-4.277,4.277s1.918,4.277,4.277,4.277h3.671c0.171,0,0.333-0.073,0.447-0.2 c0.114-0.127,0.168-0.297,0.149-0.466l-0.815-7.296c-0.033-0.298-0.281-0.526-0.581-0.533 C26.461,185.361,24.166,185.303,23.59,185.303z M23.59,192.657c-1.696,0-3.077-1.38-3.077-3.077c0-1.697,1.38-3.077,3.077-3.077 c0.396,0,1.612,0.027,2.318,0.044l0.682,6.109H23.59z M298.615,90.03v8.956h1.199v-8.859c0.246,0.011,0.497,0.016,0.756,0.017 c0.004,0,0.01,0,0.014,0c0.259,0,0.511-0.006,0.756-0.017v8.859h1.199V90.03c3.841-0.466,5.771-2.28,6.266-3.864 c0.379-1.216-0.022-2.41-1.046-3.116c-1.064-0.735-2.258-0.82-3.359-0.243c-1.773,0.931-3.06,3.42-3.06,5.921v0.197 c-0.494,0.023-1.031,0.023-1.525,0v-0.197c0-2.5-1.286-4.99-3.06-5.921c-1.102-0.577-2.294-0.493-3.359,0.243 c-1.023,0.707-1.424,1.9-1.045,3.116C292.844,87.75,294.774,89.564,298.615,90.03z M302.539,88.728c0-2.013,1.063-4.147,2.418-4.858 c0.308-0.161,0.616-0.242,0.924-0.242c0.401,0,0.801,0.136,1.196,0.409c0.593,0.409,0.805,1.055,0.582,1.772 c-0.405,1.298-2.122,2.606-5.12,3.009V88.728z M294.077,84.037c0.396-0.273,0.795-0.409,1.196-0.409 c0.308,0,0.616,0.081,0.924,0.242c1.355,0.711,2.418,2.846,2.418,4.858v0.09c-2.998-0.402-4.715-1.71-5.119-3.009 C293.272,85.092,293.484,84.446,294.077,84.037z M366.598,171.571h-17.149l-2.221-3.997c-0.239-0.431-0.694-0.699-1.188-0.699 h-16.013c-0.749,0-1.357,0.609-1.357,1.358v3.729h1.199v-3.729c0-0.087,0.071-0.158,0.158-0.158h16.013 c0.058,0,0.11,0.031,0.139,0.082l2.392,4.306c0.105,0.19,0.307,0.309,0.524,0.309h17.503c0.088,0,0.159,0.071,0.159,0.158v20.658 c0,0.087-0.071,0.158-0.159,0.158h-3.736v1.2h3.736c0.749,0,1.358-0.609,1.358-1.358v-20.658 C367.956,172.18,367.347,171.571,366.598,171.571z M190.959,196.131c0.332,0,0.6-0.269,0.6-0.6v-7.868c0-0.332-0.268-0.6-0.6-0.6 s-0.6,0.269-0.6,0.6v7.868C190.359,195.862,190.627,196.131,190.959,196.131z M199.747,192.83c0.831,0,1.813-0.155,2.955-0.564 c0.312-0.111,0.475-0.455,0.363-0.767c-0.112-0.313-0.456-0.475-0.768-0.363c-3.804,1.362-5.307-0.52-5.379-0.612 c-0.197-0.265-0.57-0.321-0.835-0.126c-0.268,0.195-0.326,0.571-0.131,0.838C196.015,191.321,197.156,192.83,199.747,192.83z M178.579,192.259c1.224,0.487,2.255,0.67,3.117,0.67c2.573,0,3.621-1.64,3.678-1.732c0.172-0.28,0.085-0.644-0.193-0.819 s-0.647-0.09-0.826,0.185c-0.057,0.088-1.435,2.133-5.333,0.581c-0.306-0.122-0.657,0.027-0.779,0.336 C178.121,191.787,178.271,192.136,178.579,192.259z M182.693,200.388c-0.109,0.179-0.117,0.401-0.021,0.587 c0.112,0.218,2.814,5.342,8.211,5.342c6.029,0,8.359-5.329,8.382-5.383c0.078-0.186,0.059-0.398-0.053-0.565 c-0.11-0.168-0.299-0.269-0.5-0.269h-15.508C182.996,200.1,182.802,200.209,182.693,200.388z M197.706,201.3 c-0.847,1.342-2.936,3.817-6.823,3.817c-3.388,0-5.615-2.459-6.587-3.817H197.706z M247.146,317.839l-0.273,1.168 c10.718,2.501,29.025,8.232,31.232,18.532c3.266,15.24-17.361,26.969-67.002,38.072l-0.031,1.281 c50.443-11.284,71.644-23.559,68.206-39.605C277.051,326.888,260.575,320.971,247.146,317.839z M140.561,336.603 c-2.584-1.14-5.234-2.298-7.927-3.457c-0.304-0.13-0.657,0.011-0.789,0.313c-0.131,0.305,0.01,0.657,0.314,0.788 c2.741,1.182,6.319,2.783,8.948,3.943C140.948,337.627,140.611,336.625,140.561,336.603z M239.753,339.29 c3.569-1.574,7.578-3.32,11.577-5.043c0.305-0.131,0.445-0.483,0.313-0.788c-0.131-0.303-0.484-0.443-0.788-0.313 c-3.695,1.591-7.226,3.123-10.553,4.587C240.198,338.064,239.91,338.819,239.753,339.29z M199.245,356.776l-1.473,0.717 c-2.277,1.106-4.523,2.199-6.072,2.978c-2.098-1.053-4.583-2.29-7.439-3.691c-0.902-0.001-2.7-0.008-2.7-0.008 c9.184,4.477,15.097,7.554,16.854,8.47c-1.487,2.599-7.997,13.921-11.964,20.013c-55.994-13.007-84.731-29.948-80.923-47.717 c2.038-9.511,16.899-15.043,29.007-18.009l-0.285-1.166c-12.441,3.048-27.727,8.805-29.896,18.923 c-3.976,18.557,25.229,36.041,82.234,49.232c0.045,0.01,0.09,0.015,0.135,0.015c0.199,0,0.389-0.099,0.501-0.271 c0.784-1.193,1.678-2.612,2.619-4.139c1.439,1.201,2.924,3.301,3.791,4.518c0.257-0.209,0.539-0.387,0.947-0.742 c-0.933-1.307-2.53-3.538-4.105-4.807c4.281-7.008,9.227-15.687,9.29-15.797c0.08-0.142,0.1-0.309,0.055-0.465 c-0.046-0.156-0.152-0.287-0.296-0.362c-0.037-0.02-2.318-1.221-6.488-3.326c1.472-0.731,3.354-1.646,5.26-2.572l3.735-1.784 C201.203,356.761,199.245,356.776,199.245,356.776z M162.853,262.466c-0.332,0-0.6,0.269-0.6,0.6v19.957c0,0.331,0.269,0.6,0.6,0.6 h18.196c0.332,0,0.6-0.269,0.6-0.6v-19.957c0-0.331-0.269-0.6-0.6-0.6H162.853z M180.449,263.665v5.062h-16.996v-5.062H180.449z M163.454,282.423v-12.497h16.996v12.497H163.454z M200.816,262.466c-0.331,0-0.6,0.269-0.6,0.6v19.957c0,0.331,0.269,0.6,0.6,0.6 h18.195c0.331,0,0.6-0.269,0.6-0.6v-19.957c0-0.331-0.269-0.6-0.6-0.6H200.816z M218.412,263.665v5.062h-16.996v-5.062H218.412z M201.416,282.423v-12.497h16.996v12.497H201.416z M159.581,165.472c0.089,1.428-1.001,2.227-2.788,3.41 c-2.181,1.445-4.895,3.244-5.04,7.488c-0.063,1.845,0.433,3.169,0.913,4.45c0.804,2.146,1.498,4-0.711,8.102 c-1.336,2.482-1.67,4.557-1.021,6.344c1.027,2.83,4.387,4.173,6.61,5.063c1.31,0.524,1.822,1.623,2.414,2.895 c0.956,2.052,2.146,4.607,7.278,4.778c3.162,0.105,4.533,1.303,5.86,2.461c1.109,0.968,2.18,1.903,4.088,1.903 c1.13,0,2.564-0.339,4.463-1.184c0.325,0.186,0.661,0.362,1.004,0.531c-0.003,0.031-0.015,0.059-0.013,0.091 c0.335,5.372-0.434,6.408-0.57,6.547c-0.065,0.013-0.127,0.037-0.183,0.069c0,0-0.001,0-0.001,0 c-0.277,0.159-6.812,4.932-9.043,6.769c-0.196,0.161-0.27,0.43-0.182,0.669c2.989,8.189,10.94,19.223,11.021,19.344 c0.11,0.166,0.298,0.268,0.498,0.268c0,0,0.001,0,0.002,0c0.199,0,0.386-0.099,0.497-0.265c0.036-0.052,3.378-5.033,6.256-11.211 c2.878,6.178,6.22,11.159,6.256,11.211c0.111,0.166,0.298,0.265,0.497,0.265c0.001,0,0.002,0,0.002,0 c0.201,0,0.388-0.102,0.498-0.268c0.08-0.121,8.03-11.154,11.02-19.344c0.087-0.239,0.015-0.508-0.182-0.669 c-2.23-1.837-8.766-6.609-9.043-6.769c0,0,0,0-0.001,0c-0.056-0.032-0.117-0.056-0.182-0.069c-0.137-0.139-0.906-1.175-0.57-6.547 c0.001-0.023-0.008-0.044-0.009-0.067c0.483-0.237,0.947-0.49,1.394-0.759c0.051,0.054,0.112,0.1,0.184,0.133 c5.248,2.387,6.936,0.911,8.724-0.648c1.326-1.158,2.698-2.355,5.859-2.461c5.133-0.171,6.322-2.726,7.278-4.778 c0.592-1.272,1.104-2.371,2.413-2.895c2.224-0.889,5.583-2.233,6.61-5.063c0.649-1.787,0.314-3.862-1.021-6.344 c-2.209-4.102-1.515-5.955-0.711-8.102c0.479-1.281,0.975-2.605,0.912-4.45c-0.144-4.244-2.858-6.043-5.039-7.488 c-1.786-1.184-2.877-1.982-2.787-3.41c0.187-2.987,0.108-6.742-2.17-9.282c-1.418-1.581-3.513-2.446-6.228-2.572 c-3.807-0.176-5.057-1.494-6.38-2.888c-1.047-1.102-2.128-2.242-4.366-2.801c-5.164-1.292-8.693,1.782-9.994,3.194 c-1.21-1.668-4.837-5.427-11.961-3.484c-4.095,1.117-5.758,2.524-7.094,3.654c-1.536,1.299-2.645,2.238-6.848,2.325 c-2.68,0.056-4.76,0.868-6.183,2.414C159.444,158.603,159.405,162.651,159.581,165.472z M171.494,188.331 c0.043,0.12,0.116,0.231,0.231,0.305c1.145,0.733,2.007,1.079,2.718,1.079c0.153,0,0.299-0.016,0.439-0.048 c0.862-0.194,1.303-0.899,1.769-1.645c0.69-1.105,1.473-2.358,3.899-2.722c2.348-0.353,2.754-2.25,3.081-3.774 c0.352-1.642,0.557-2.441,1.995-2.382c4.432,0.144,4.882-1.717,5.279-5.028c0.176-1.47,0.656-2.406,1.424-2.783 c1.346-0.657,3.261,0.474,3.279,0.486c0.166,0.099,0.371,0.114,0.549,0.036c0.018-0.007,1.798-0.75,2.893-0.064 c0.592,0.371,0.917,1.137,0.964,2.278c0.024,0.582,0.039,1.124,0.053,1.626c0.067,2.463,0.112,4.091,1.129,5.047 c0.651,0.613,1.604,0.862,3.091,0.814c0.448-0.009,0.605,0.136,0.657,0.186c0.403,0.395,0.392,1.499,0.38,2.566 c-0.016,1.506-0.034,3.213,1.091,4.101c0.759,0.599,1.875,0.704,3.416,0.318c0.081-0.02,0.154-0.057,0.217-0.105 c0.001-0.001,0.002-0.001,0.003-0.001c0.07-0.054,1.757-1.291,3.95,0.244c1.408,0.985,1.701,3.958,0.639,6.491 c-0.479,1.14-1.929,3.722-5.057,3.146c-0.279-0.054-0.563,0.103-0.668,0.371c-1.246,3.172-6.223,13.521-17.956,13.531 c-11.732-0.011-16.71-10.359-17.957-13.531c-0.106-0.268-0.389-0.423-0.668-0.371c-2.889,0.536-4.313-1.55-4.903-2.842 c-1.143-2.5-0.902-5.687,0.516-6.818C169.649,187.486,170.925,187.969,171.494,188.331z M198.911,219.146 c-0.891,1.787-4.315,8.423-7.978,12.416c-3.662-3.993-7.088-10.629-7.979-12.416c0.796-0.864,1.098-3.184,0.906-6.888 c2.047,0.829,4.393,1.34,7.075,1.345c0.002,0,0.004,0,0.007,0c0.01-0.001,0.021,0,0.034,0c0.002,0,0.004,0,0.007,0 c2.658-0.005,4.987-0.506,7.021-1.322C197.814,215.972,198.117,218.284,198.911,219.146z M168.018,154.818 c4.629-0.096,6.005-1.26,7.598-2.609c1.311-1.109,2.796-2.366,6.634-3.413c8.003-2.183,10.925,3.367,11.045,3.604 c0.096,0.188,0.282,0.313,0.492,0.328c0.209,0.014,0.413-0.08,0.534-0.252c0.035-0.049,3.486-4.831,9.277-3.383 c1.899,0.475,2.815,1.44,3.786,2.463c1.362,1.435,2.906,3.062,7.196,3.26c2.381,0.11,4.193,0.842,5.389,2.175 c1.981,2.209,2.038,5.652,1.866,8.406c-0.138,2.193,1.543,3.307,3.321,4.486c2.153,1.427,4.38,2.902,4.503,6.529 c0.055,1.606-0.379,2.763-0.837,3.988c-0.83,2.217-1.688,4.51,0.778,9.092c1.148,2.133,1.469,3.938,0.95,5.365 c-0.779,2.147-3.249,3.287-5.928,4.358c-1.752,0.701-2.415,2.125-3.056,3.502c-0.943,2.025-1.834,3.939-6.229,4.085 c-3.589,0.12-5.264,1.581-6.609,2.756c-1.618,1.414-2.812,2.44-6.961,0.667c4.64-3.284,7.098-8.11,8.084-10.472 c2.556,0.259,4.736-1.175,5.893-3.933c1.123-2.677,1.037-6.473-1.058-7.938c-2.243-1.568-4.337-0.923-5.246-0.299 c-1.084,0.257-1.857,0.222-2.285-0.115c-0.662-0.523-0.647-1.856-0.634-3.146c0.015-1.38,0.029-2.685-0.741-3.438 c-0.38-0.371-0.908-0.544-1.536-0.526c-1.125,0.032-1.834-0.118-2.229-0.489c-0.652-0.614-0.692-2.043-0.751-4.206 c-0.015-0.508-0.029-1.056-0.054-1.644c-0.065-1.56-0.578-2.651-1.526-3.245c-1.321-0.829-3.049-0.363-3.723-0.128 c-0.689-0.353-2.574-1.163-4.157-0.393c-1.161,0.566-1.865,1.817-2.093,3.72c-0.381,3.174-0.647,4.083-4.047,3.972 c-2.473-0.087-2.882,1.81-3.208,3.331c-0.347,1.618-0.632,2.621-2.085,2.839c-2.974,0.446-3.994,2.08-4.74,3.272 c-0.409,0.656-0.659,1.031-1.014,1.111c-0.384,0.086-1.025-0.147-1.884-0.657c-0.025-0.041-0.044-0.084-0.08-0.12 c-0.803-0.802-2.978-1.794-5.457,0.184c-2.096,1.673-2.077,5.587-0.858,8.254c1.157,2.533,3.265,3.849,5.724,3.594 c1.004,2.407,3.54,7.369,8.351,10.654c-3.806,1.524-4.969,0.517-6.531-0.848c-1.346-1.175-3.02-2.636-6.609-2.756 c-4.396-0.146-5.287-2.06-6.23-4.085c-0.641-1.377-1.305-2.802-3.057-3.502c-2.679-1.071-5.148-2.211-5.927-4.358 c-0.518-1.427-0.198-3.232,0.95-5.365c2.467-4.582,1.608-6.875,0.778-9.092c-0.459-1.225-0.892-2.382-0.837-3.988 c0.124-3.626,2.35-5.102,4.503-6.529c1.779-1.179,3.459-2.292,3.322-4.486c-0.162-2.602-0.141-6.319,1.915-8.553 C163.886,155.548,165.678,154.866,168.018,154.818z M86.206,113.332c-10.256,14.304-17.353,30.252-21.095,47.402 c-0.07,0.324,0.135,0.644,0.458,0.714c0.043,0.009,0.086,0.014,0.128,0.014c0.276,0,0.524-0.191,0.586-0.472 c3.707-16.989,10.738-32.789,20.898-46.959c0.193-0.27,0.131-0.644-0.138-0.837C86.774,113.002,86.4,113.062,86.206,113.332z M117.494,83.82c0.119,0,0.239-0.035,0.344-0.109c14.8-10.368,31.278-17.345,48.976-20.737c0.326-0.063,0.539-0.377,0.477-0.702 c-0.062-0.325-0.375-0.538-0.702-0.477c-17.865,3.424-34.499,10.467-49.439,20.933c-0.271,0.19-0.337,0.564-0.147,0.835 C117.119,83.731,117.305,83.82,117.494,83.82z M216.293,63.193c17.409,3.502,33.619,10.486,48.18,20.758 c0.104,0.074,0.226,0.11,0.345,0.11c0.188,0,0.374-0.088,0.491-0.254c0.191-0.271,0.126-0.645-0.145-0.836 c-14.698-10.369-31.061-17.418-48.635-20.954c-0.319-0.066-0.642,0.144-0.706,0.47C215.758,62.811,215.968,63.128,216.293,63.193z M294.89,113.15c-0.27,0.193-0.331,0.568-0.138,0.837c10.44,14.549,17.573,30.783,21.199,48.249c0.06,0.283,0.309,0.478,0.587,0.478 c0.041,0,0.082-0.004,0.123-0.013c0.324-0.067,0.533-0.385,0.466-0.709c-3.661-17.631-10.861-34.018-21.4-48.704 C295.533,113.018,295.158,112.955,294.89,113.15z M283.248,189.013h6.623c0.382,0,0.692-0.31,0.692-0.693s-0.31-0.692-0.692-0.692 h-6.623c-0.382,0-0.692,0.31-0.692,0.692S282.866,189.013,283.248,189.013z M270.88,142.865c0.117,0,0.237-0.03,0.345-0.093 l5.735-3.313c0.331-0.191,0.445-0.615,0.254-0.946c-0.19-0.33-0.616-0.445-0.945-0.253l-5.735,3.313 c-0.331,0.191-0.445,0.615-0.254,0.946C270.408,142.741,270.64,142.865,270.88,142.865z M105.005,139.46l5.735,3.313 c0.109,0.063,0.228,0.093,0.346,0.093c0.239,0,0.472-0.124,0.6-0.346c0.191-0.331,0.078-0.755-0.253-0.946l-5.735-3.313 c-0.331-0.19-0.754-0.078-0.946,0.253C104.561,138.845,104.675,139.269,105.005,139.46z M105.352,238.472 c0.118,0,0.237-0.03,0.346-0.093l5.735-3.313c0.331-0.191,0.444-0.615,0.253-0.946c-0.191-0.331-0.615-0.443-0.946-0.253 l-5.735,3.313c-0.331,0.191-0.444,0.615-0.253,0.946C104.881,238.348,105.114,238.472,105.352,238.472z M190.983,96.747 c0.383,0,0.693-0.31,0.693-0.692v-6.623c0-0.383-0.31-0.692-0.693-0.692s-0.692,0.31-0.692,0.692v6.623 C190.29,96.437,190.6,96.747,190.983,96.747z M270.533,235.067l5.735,3.313c0.108,0.063,0.228,0.093,0.345,0.093 c0.24,0,0.472-0.124,0.601-0.346c0.192-0.331,0.078-0.755-0.254-0.946l-5.735-3.313c-0.33-0.193-0.755-0.078-0.945,0.253 C270.088,234.452,270.202,234.876,270.533,235.067z M144.836,109.116c0.118,0,0.237-0.03,0.346-0.093 c0.331-0.191,0.444-0.615,0.253-0.946l-3.312-5.735c-0.192-0.33-0.614-0.443-0.946-0.253c-0.331,0.191-0.444,0.615-0.253,0.946 l3.312,5.735C144.364,108.992,144.596,109.116,144.836,109.116z M91.402,188.32c0,0.383,0.31,0.693,0.693,0.693h6.623 c0.383,0,0.692-0.31,0.692-0.693s-0.31-0.692-0.692-0.692h-6.623C91.712,187.628,91.402,187.938,91.402,188.32z M240.789,102.09 c-0.331-0.191-0.754-0.078-0.946,0.253l-3.313,5.735c-0.191,0.331-0.078,0.755,0.253,0.946c0.109,0.063,0.228,0.093,0.346,0.093 c0.239,0,0.472-0.124,0.6-0.346l3.313-5.735C241.233,102.704,241.12,102.281,240.789,102.09z M318.009,205.982 c-0.329-0.043-0.633,0.182-0.679,0.51c-5.625,39.462-29.859,74.422-64.887,93.711c0.038,0.047,0.086,0.084,0.121,0.134 c0.203,0.289,0.326,0.615,0.395,0.952c35.39-19.462,59.877-54.77,65.558-94.629C318.564,206.333,318.337,206.029,318.009,205.982z M128.708,300.337c0.101-0.144,0.222-0.268,0.347-0.385c-35.243-19.595-59.388-55.022-64.617-94.861 c-0.043-0.329-0.346-0.557-0.673-0.517c-0.329,0.043-0.56,0.344-0.517,0.673c5.274,40.185,29.616,75.923,65.149,95.711 C128.474,300.74,128.572,300.53,128.708,300.337z" fill="#050405"/></g></svg>